<?xml version="1.0" encoding="iso-8859-1"?>
<!-- Generator: Adobe Illustrator 22.1.0, SVG Export Plug-In . SVG Version: 6.00 Build 0)  -->
<svg version="1.1" xmlns="http://www.w3.org/2000/svg" xmlns:xlink="http://www.w3.org/1999/xlink" x="0px" y="0px"
	 viewBox="0 0 64 64" style="enable-background:new 0 0 64 64;" xml:space="preserve">
<g id="_x31_">
	<path style="fill:#343B4A;" d="M63.036,10.77c-1.131-2.029-2.516-3.879-4.087-5.471l-0.121-0.129
		c-1.614-1.615-3.495-3.029-5.59-4.204l-0.006-0.003c-1.461-0.808-3.085-1.117-4.69-0.889c-1.614,0.223-3.089,0.962-4.265,2.139
		L6.303,40.185c-0.397,0.368-0.678,0.847-0.801,1.342l-5.394,18.82c-0.14,0.494-0.143,1.028,0.002,1.581
		C0.474,63.182,1.623,64,2.863,64c0.261,0,0.526-0.036,0.789-0.112l18.785-5.376c0.514-0.133,0.96-0.386,1.325-0.753l38.032-38.038
		c1.173-1.174,1.911-2.649,2.135-4.267C64.15,13.836,63.842,12.216,63.036,10.77z M17.116,48.723L47.689,18.15l6.001,6.001
		L23.121,54.727L17.116,48.723z M15.28,46.887l-5.996-5.996l30.566-30.58l6.002,6.003L15.28,46.887z M2.934,61.392
		c-0.143,0.04-0.287-0.042-0.321-0.155c-0.018-0.07-0.02-0.133-0.008-0.178l5.163-18.012l13.189,13.188L2.934,61.392z M61.355,15.1
		c-0.145,1.052-0.629,2.015-1.407,2.792l-4.422,4.423l-13.84-13.84l4.425-4.427c0.773-0.773,1.736-1.258,2.788-1.403
		c0.221-0.031,0.444-0.047,0.665-0.047c0.827,0,1.647,0.216,2.407,0.635c1.885,1.057,3.574,2.327,4.985,3.736l0.115,0.123
		c1.436,1.456,2.679,3.118,3.696,4.942C61.297,12.984,61.5,14.044,61.355,15.1z"/>
</g>
<g id="Layer_1">
</g>
</svg>
