<?xml version="1.0" encoding="iso-8859-1"?>
<!-- Generator: Adobe Illustrator 22.1.0, SVG Export Plug-In . SVG Version: 6.00 Build 0)  -->
<svg version="1.1" xmlns="http://www.w3.org/2000/svg" xmlns:xlink="http://www.w3.org/1999/xlink" x="0px" y="0px"
	 viewBox="0 0 64 64" style="enable-background:new 0 0 64 64;" xml:space="preserve">
<g id="_x31_0">
	<path style="fill:#343B4A;" d="M32,58.663c-0.25,0-0.5-0.07-0.72-0.21c-10.626-6.781-28.791-20.139-31.044-33.4
		c-0.755-4.437,0.307-8.525,3.157-12.151c3.511-4.467,7.656-6.983,12.319-7.476C22.633,4.695,28.937,8.674,32,11.042
		c3.063-2.367,9.351-6.351,16.288-5.616c4.662,0.493,8.807,3.009,12.319,7.476c2.85,3.626,3.912,7.714,3.158,12.151
		C61.511,38.317,43.346,51.672,32.72,58.453C32.5,58.593,32.249,58.663,32,58.663z M17.42,8.013c-0.473,0-0.949,0.024-1.428,0.075
		c-3.916,0.414-7.448,2.591-10.496,6.468C3.1,17.605,2.243,20.891,2.874,24.604C4.906,36.567,21.667,49.064,32,55.735
		c10.332-6.67,27.094-19.166,29.127-31.13c0.631-3.713-0.227-7-2.624-10.049l0,0c-3.047-3.878-6.579-6.054-10.496-6.468
		c-6.636-0.706-12.81,3.75-15.152,5.697c-0.497,0.412-1.215,0.412-1.712,0C28.972,11.978,23.507,8.013,17.42,8.013z"/>
</g>
<g id="Layer_1">
</g>
</svg>
