<?xml version="1.0" encoding="iso-8859-1"?>
<!-- Generator: Adobe Illustrator 22.1.0, SVG Export Plug-In . SVG Version: 6.00 Build 0)  -->
<svg version="1.1" xmlns="http://www.w3.org/2000/svg" xmlns:xlink="http://www.w3.org/1999/xlink" x="0px" y="0px"
	 viewBox="0 0 64 64" style="enable-background:new 0 0 64 64;" xml:space="preserve">
<g id="_x31_1">
	<path style="fill:#343B4A;" d="M49.235,62.928c-0.336,0-0.673-0.112-0.949-0.332L30.927,48.761L12.405,60.995
		c-0.549,0.364-1.272,0.33-1.789-0.08c-0.516-0.411-0.71-1.109-0.478-1.727l7.795-20.785L0.575,24.569
		c-0.516-0.411-0.71-1.109-0.478-1.727c0.232-0.618,0.815-0.992,1.496-0.987l22.174,0.99L31.561,2.06
		c0.234-0.618,0.801-1.01,1.496-0.987c0.659,0.03,1.225,0.48,1.4,1.117l5.911,21.396l22.177,0.99c0.659,0.03,1.225,0.48,1.4,1.117
		c0.176,0.636-0.077,1.313-0.629,1.677L44.793,39.603l5.911,21.396c0.176,0.636-0.077,1.313-0.629,1.677
		C49.82,62.845,49.527,62.928,49.235,62.928z M31.011,45.356c0.336,0,0.673,0.112,0.949,0.332L46.518,57.29l-4.957-17.943
		c-0.176-0.636,0.077-1.313,0.629-1.677l15.533-10.259l-18.598-0.83c-0.659-0.03-1.225-0.48-1.4-1.117L32.768,7.521l-6.536,17.43
		c-0.232,0.618-0.789,1.024-1.496,0.987l-18.595-0.83L20.698,36.71c0.516,0.411,0.71,1.109,0.478,1.727l-6.537,17.43l15.533-10.259
		C30.426,45.439,30.719,45.356,31.011,45.356z"/>
</g>
<g id="Layer_1">
</g>
</svg>
