<?xml version="1.0" encoding="iso-8859-1"?>
<!-- Generator: Adobe Illustrator 22.1.0, SVG Export Plug-In . SVG Version: 6.00 Build 0)  -->
<svg version="1.1" xmlns="http://www.w3.org/2000/svg" xmlns:xlink="http://www.w3.org/1999/xlink" x="0px" y="0px"
	 viewBox="0 0 64 64" style="enable-background:new 0 0 64 64;" xml:space="preserve">
<g id="_x31_2">
	<path style="fill:#343B4A;" d="M35.448,3.449c-14.516,0-26.51,10.898-28.295,24.937L2.76,17.615L0,18.74l6.198,15.203l14.743-6.011
		l-1.127-2.76l-9.767,3.982C11.469,16.391,22.313,6.43,35.448,6.43c14.1,0,25.57,11.471,25.57,25.57s-11.471,25.57-25.57,25.57
		c-10.548,0-20.155-6.621-23.905-16.475l-2.786,1.06c4.188,11.004,14.913,18.397,26.691,18.397C51.192,60.551,64,47.743,64,32
		S51.192,3.449,35.448,3.449z"/>
</g>
<g id="Layer_1">
</g>
</svg>
