<?xml version="1.0" encoding="iso-8859-1"?>
<!-- Generator: Adobe Illustrator 22.1.0, SVG Export Plug-In . SVG Version: 6.00 Build 0)  -->
<svg version="1.1" xmlns="http://www.w3.org/2000/svg" xmlns:xlink="http://www.w3.org/1999/xlink" x="0px" y="0px"
	 viewBox="0 0 64 64" style="enable-background:new 0 0 64 64;" xml:space="preserve">
<g id="_x31_3">
	<path style="fill:#343B4A;" d="M59.616,53.095H4.383c-1.687,0-3.137-1.151-3.527-2.798C0.288,47.89,0,45.404,0,42.905
		c0-8.839,3.707-17.368,10.17-23.401c6.554-6.116,15.112-9.134,24.104-8.521c15.958,1.104,29.002,14.497,29.696,30.492l0,0
		c0.129,2.988-0.149,5.958-0.826,8.825C62.754,51.945,61.304,53.095,59.616,53.095z M31.977,13.19
		c-7.562,0-14.684,2.794-20.248,7.987c-6.002,5.6-9.444,13.521-9.444,21.729c0,2.321,0.267,4.632,0.795,6.866
		c0.145,0.61,0.68,1.038,1.302,1.038h55.233c0.623,0,1.158-0.425,1.302-1.035c0.629-2.663,0.887-5.422,0.767-8.201l0,0
		c-0.644-14.85-12.754-27.286-27.57-28.309C33.399,13.214,32.686,13.19,31.977,13.19z M58.848,44.048H52.06v-2.286h6.788V44.048z
		 M11.945,44.048H5.157v-2.286h6.788V44.048z M33.146,22.848H30.86v-6.789h2.286V22.848z M46.993,29.531l-1.616-1.616l4.8-4.8
		l1.616,1.616L46.993,29.531z M17.012,29.531l-4.8-4.8l1.616-1.616l4.8,4.8L17.012,29.531z M32,49.586
		c-3.272,0-5.934-2.662-5.934-5.934c0-1.756,0.793-3.425,2.141-4.55l2.687-10.67c0.128-0.508,0.585-0.864,1.108-0.864l0,0
		c0.524,0,0.98,0.356,1.108,0.864l2.684,10.671c1.348,1.125,2.14,2.795,2.14,4.549C37.935,46.924,35.272,49.586,32,49.586z
		 M32.002,33.393l-1.675,6.648c-0.066,0.262-0.223,0.492-0.443,0.65c-0.96,0.689-1.533,1.796-1.533,2.961
		c0,2.012,1.637,3.648,3.648,3.648c2.012,0,3.649-1.636,3.649-3.648c0-1.165-0.573-2.271-1.533-2.96
		c-0.219-0.157-0.376-0.387-0.442-0.65L32.002,33.393z"/>
</g>
<g id="Layer_1">
</g>
</svg>
