<?xml version="1.0" encoding="iso-8859-1"?>
<!-- Generator: Adobe Illustrator 22.1.0, SVG Export Plug-In . SVG Version: 6.00 Build 0)  -->
<svg version="1.1" xmlns="http://www.w3.org/2000/svg" xmlns:xlink="http://www.w3.org/1999/xlink" x="0px" y="0px"
	 viewBox="0 0 64 64" style="enable-background:new 0 0 64 64;" xml:space="preserve">
<g id="_x31_4">
	<path style="fill:#343B4A;" d="M19.495,64H7.88c-0.679,0-1.23-0.55-1.23-1.23V44.103c0-0.68,0.551-1.23,1.23-1.23h11.615
		c0.679,0,1.23,0.55,1.23,1.23V62.77C20.725,63.45,20.174,64,19.495,64z M9.11,61.539h9.154V45.333H9.11V61.539z M38.625,64H27.01
		c-0.679,0-1.23-0.55-1.23-1.23V33.171c0-0.68,0.551-1.23,1.23-1.23h11.615c0.679,0,1.23,0.55,1.23,1.23V62.77
		C39.855,63.45,39.304,64,38.625,64z M28.241,61.539h9.154V34.401h-9.154V61.539z M57.755,64H46.14c-0.679,0-1.23-0.55-1.23-1.23
		V19.507c0-0.68,0.551-1.23,1.23-1.23h11.615c0.679,0,1.23,0.55,1.23,1.23V62.77C58.985,63.45,58.434,64,57.755,64z M47.37,61.539
		h9.154V20.737H47.37V61.539z M56.642,4.882l-1.846,5.853l2.347,0.74l2.885-9.146c0.113-0.358,0.056-0.747-0.154-1.059
		c-0.21-0.311-0.55-0.509-0.925-0.538L49.48,0l-0.19,2.454l5.876,0.454L3.916,36.542l1.351,2.057L56.642,4.882z"/>
</g>
<g id="Layer_1">
</g>
</svg>
