<?xml version="1.0" encoding="iso-8859-1"?>
<!-- Generator: Adobe Illustrator 22.1.0, SVG Export Plug-In . SVG Version: 6.00 Build 0)  -->
<svg version="1.1" xmlns="http://www.w3.org/2000/svg" xmlns:xlink="http://www.w3.org/1999/xlink" x="0px" y="0px"
	 viewBox="0 0 64 64" style="enable-background:new 0 0 64 64;" xml:space="preserve">
<g id="_x31_5">
	<path style="fill:#343B4A;" d="M53.413,18.52h-7.161v-6.085C46.252,5.578,40.673,0,33.817,0h-3.634
		c-6.856,0-12.435,5.578-12.435,12.435v6.085h-7.161c-0.733,0-1.327,0.594-1.327,1.327v42.826C9.26,63.406,9.854,64,10.587,64
		h42.826c0.733,0,1.327-0.594,1.327-1.327V19.847C54.74,19.113,54.146,18.52,53.413,18.52z M20.402,12.435
		c0-5.393,4.388-9.781,9.781-9.781h3.634c5.393,0,9.781,4.388,9.781,9.781v6.085H20.402V12.435z M52.086,61.346H11.914V21.174h7.161
		h25.85h7.161V61.346z M39.429,34.586l1.877,1.877L29.934,47.834c-0.381,0.381-0.881,0.572-1.382,0.572
		c-0.501,0-1.001-0.191-1.382-0.572l-5.116-5.117l1.877-1.877l4.622,4.622L39.429,34.586z"/>
</g>
<g id="Layer_1">
</g>
</svg>
