<?xml version="1.0" encoding="iso-8859-1"?>
<!-- Generator: Adobe Illustrator 22.1.0, SVG Export Plug-In . SVG Version: 6.00 Build 0)  -->
<svg version="1.1" xmlns="http://www.w3.org/2000/svg" xmlns:xlink="http://www.w3.org/1999/xlink" x="0px" y="0px"
	 viewBox="0 0 64 64" style="enable-background:new 0 0 64 64;" xml:space="preserve">
<g id="_x31_6">
	<path style="fill:#343B4A;" d="M49.579,10.973H14.421L0,23.94v0.737v1.161v23.287c0,2.152,1.75,3.902,3.902,3.902h56.196
		c2.152,0,3.902-1.75,3.902-3.902V25.838v-1.161V23.94L49.579,10.973z M61.678,49.125c0,0.872-0.708,1.58-1.58,1.58H3.902
		c-0.872,0-1.58-0.708-1.58-1.58V26.999h16.235c0.764,6.803,6.467,11.98,13.443,11.98s12.679-5.177,13.443-11.98h16.235V49.125z
		 M43.237,24.677l-0.035,1.125C43.015,31.889,38.094,36.657,32,36.657s-11.015-4.768-11.202-10.855l-0.035-1.125H2.652
		l12.661-11.382h33.375l12.661,11.382H43.237z"/>
</g>
<g id="Layer_1">
</g>
</svg>
