<?xml version="1.0" encoding="iso-8859-1"?>
<!-- Generator: Adobe Illustrator 22.1.0, SVG Export Plug-In . SVG Version: 6.00 Build 0)  -->
<svg version="1.1" xmlns="http://www.w3.org/2000/svg" xmlns:xlink="http://www.w3.org/1999/xlink" x="0px" y="0px"
	 viewBox="0 0 64 64" style="enable-background:new 0 0 64 64;" xml:space="preserve">
<g id="_x31_7">
	<path style="fill:#343B4A;" d="M64,51.999H6.679V5.322H64V51.999z M9.656,49.023h51.368V8.299H9.656V49.023z M25.542,39.37
		c-0.278,0-0.555-0.078-0.798-0.231c-0.43-0.273-0.69-0.747-0.69-1.257V19.438c0-0.51,0.26-0.984,0.69-1.257
		c0.432-0.272,0.969-0.305,1.432-0.09l19.596,9.222c0.522,0.246,0.855,0.77,0.855,1.347c0,0.577-0.333,1.102-0.855,1.347
		l-19.596,9.221C25.974,39.323,25.759,39.37,25.542,39.37z M27.031,21.784v13.751l14.612-6.875L27.031,21.784z M55.834,55.701H2.977
		V13.488H0v45.19h55.834V55.701z"/>
</g>
<g id="Layer_1">
</g>
</svg>
