<?xml version="1.0" encoding="iso-8859-1"?>
<!-- Generator: Adobe Illustrator 22.1.0, SVG Export Plug-In . SVG Version: 6.00 Build 0)  -->
<svg version="1.1" xmlns="http://www.w3.org/2000/svg" xmlns:xlink="http://www.w3.org/1999/xlink" x="0px" y="0px"
	 viewBox="0 0 64 64" style="enable-background:new 0 0 64 64;" xml:space="preserve">
<g id="_x31_8">
	<path style="fill:#343B4A;" d="M32.006,64c-0.006,0-0.009,0-0.012,0c-0.778,0-1.999-0.331-4.529-2.851
		c-6.639-6.611-19.562-25.679-19.562-37.05C7.903,10.811,18.713,0,32,0s24.097,10.811,24.097,24.099
		c0,11.356-12.958,30.451-19.615,37.08C33.976,63.672,32.772,64,32.006,64z M31.898,60.974L31.898,60.974L31.898,60.974z
		 M32.089,60.971c0.001,0,0.003,0.001,0.004,0.001h0.006L32.089,60.971z M32,3.036c-11.614,0-21.061,9.449-21.061,21.063
		c0,12.198,17.713,35.632,21.058,36.844c3.395-1.247,21.064-24.278,21.064-36.844C53.061,12.485,43.614,3.036,32,3.036z M32,34.251
		c-6.229,0-11.296-5.068-11.296-11.296c0-6.23,5.068-11.298,11.296-11.298c6.23,0,11.298,5.068,11.298,11.298
		C43.298,29.183,38.23,34.251,32,34.251z M32,14.693c-4.555,0-8.26,3.707-8.26,8.261s3.705,8.26,8.26,8.26s8.261-3.705,8.261-8.26
		S36.555,14.693,32,14.693z"/>
</g>
<g id="Layer_1">
</g>
</svg>
