<?xml version="1.0" encoding="iso-8859-1"?>
<!-- Generator: Adobe Illustrator 22.1.0, SVG Export Plug-In . SVG Version: 6.00 Build 0)  -->
<svg version="1.1" xmlns="http://www.w3.org/2000/svg" xmlns:xlink="http://www.w3.org/1999/xlink" x="0px" y="0px"
	 viewBox="0 0 64 64" style="enable-background:new 0 0 64 64;" xml:space="preserve">
<g id="_x31_9">
	<path style="fill:#343B4A;" d="M36.694,63.995h-9.389c-0.826,0-1.495-0.669-1.495-1.495v-6.333c-2.229-0.581-4.4-1.501-6.481-2.742
		l-3.836,3.835c-0.584,0.584-1.53,0.584-2.114,0l-6.639-6.639c-0.28-0.28-0.438-0.66-0.438-1.057s0.158-0.777,0.438-1.057
		l3.825-3.825c-1.245-2.077-2.166-4.253-2.747-6.49H1.495C0.669,38.193,0,37.524,0,36.698V27.31c0-0.826,0.669-1.495,1.495-1.495
		h6.324c0.582-2.236,1.502-4.412,2.748-6.49l-3.826-3.826c-0.583-0.584-0.583-1.53,0.001-2.114l6.639-6.639
		c0.28-0.28,0.661-0.438,1.057-0.438l0,0c0.397,0,0.777,0.158,1.058,0.438l3.833,3.835c2.078-1.247,4.25-2.165,6.483-2.743V1.5
		c0-0.826,0.669-1.495,1.495-1.495h9.389c0.826,0,1.495,0.669,1.495,1.495v6.337c2.232,0.578,4.404,1.496,6.482,2.742l3.834-3.834
		c0.561-0.561,1.553-0.561,2.114,0l6.639,6.639c0.584,0.584,0.584,1.53,0,2.114l-3.825,3.826c1.246,2.079,2.167,4.254,2.749,6.49
		h6.324c0.826,0,1.495,0.669,1.495,1.495v9.388c0,0.826-0.669,1.495-1.495,1.495h-6.324c-0.582,2.238-1.503,4.413-2.748,6.49
		l3.824,3.825c0.584,0.584,0.584,1.53,0,2.114l-6.639,6.639c-0.584,0.584-1.53,0.584-2.114,0l-3.836-3.835
		c-2.08,1.242-4.251,2.161-6.479,2.742V62.5C38.189,63.327,37.52,63.995,36.694,63.995z M28.8,61.006H35.2v-6.025
		c0-0.709,0.499-1.323,1.195-1.464c2.65-0.543,5.23-1.632,7.666-3.238c0.594-0.393,1.378-0.312,1.88,0.191l3.62,3.62l4.525-4.525
		l-3.612-3.612c-0.503-0.502-0.582-1.289-0.189-1.882c1.609-2.429,2.7-5.012,3.244-7.673c0.142-0.696,0.755-1.196,1.465-1.196h6.016
		v-6.398h-6.016c-0.71,0-1.323-0.499-1.465-1.196c-0.543-2.66-1.634-5.241-3.244-7.673c-0.392-0.593-0.313-1.38,0.19-1.882
		l3.612-3.613l-4.525-4.525l-3.621,3.622c-0.501,0.502-1.29,0.584-1.883,0.188c-2.429-1.61-5.006-2.698-7.659-3.234
		C35.701,10.351,35.2,9.737,35.2,9.027V2.994H28.8v6.032c0,0.711-0.501,1.324-1.199,1.466c-2.653,0.536-5.231,1.623-7.661,3.235
		c-0.593,0.393-1.38,0.312-1.882-0.19l-3.621-3.622l-4.525,4.525l3.613,3.613c0.503,0.502,0.582,1.289,0.19,1.882
		c-1.609,2.431-2.701,5.013-3.244,7.673c-0.142,0.696-0.755,1.196-1.465,1.196H2.99v6.398h6.016c0.71,0,1.323,0.499,1.465,1.196
		c0.544,2.663,1.635,5.244,3.243,7.673c0.393,0.593,0.314,1.38-0.189,1.882l-3.612,3.612l4.525,4.525l3.621-3.62
		c0.503-0.502,1.288-0.582,1.879-0.191c2.438,1.604,5.018,2.695,7.669,3.238c0.696,0.142,1.195,0.755,1.195,1.464V61.006z
		 M32,47.572c-0.861,0-1.738-0.088-2.759-0.274l-0.556-0.095c-0.753-0.172-1.473-0.397-2.194-0.68
		c-0.357-0.134-0.712-0.274-1.068-0.444c-0.017-0.009-0.142-0.067-0.158-0.076c-0.039-0.02-0.076-0.042-0.112-0.064
		c-3.651-1.794-6.407-4.892-7.773-8.742c-0.63-1.758-0.95-3.507-0.95-5.194c0-1.708,0.311-3.409,0.952-5.197
		c1.362-3.841,4.115-6.939,7.762-8.74c0.053-0.035,0.109-0.067,0.167-0.095s0.172-0.072,0.233-0.092
		c0.239-0.121,0.597-0.273,0.976-0.413c0.741-0.282,1.437-0.496,2.115-0.651c0.135-0.032,0.294-0.06,0.455-0.086l0.153-0.026
		c1.99-0.372,3.562-0.371,5.523,0.001l0.144,0.025c0.161,0.026,0.319,0.054,0.473,0.091c0.658,0.149,1.354,0.364,2.112,0.653
		c0.365,0.134,0.723,0.286,1.083,0.457c0.034,0.018,0.068,0.035,0.101,0.054l0.001-0.003c3.73,1.785,6.552,4.921,7.947,8.828
		c0.634,1.799,0.942,3.496,0.942,5.196c0,1.702-0.307,3.4-0.94,5.193c-0.001,0.001-0.001,0.003-0.001,0.004
		c-1.375,3.85-4.132,6.944-7.777,8.736c-0.037,0.023-0.075,0.047-0.115,0.067c-0.024,0.013-0.113,0.055-0.139,0.067
		c-0.375,0.178-0.731,0.318-1.105,0.46c-0.706,0.277-1.426,0.502-2.123,0.661l-0.613,0.107C33.764,47.482,32.86,47.572,32,47.572z
		 M26.757,43.403c0.293,0.133,0.546,0.231,0.81,0.33c0.601,0.236,1.177,0.418,1.731,0.545l0.479,0.08
		c1.682,0.307,2.807,0.304,4.439,0l0.539-0.092c0.498-0.115,1.075-0.296,1.661-0.526c0.295-0.112,0.562-0.215,0.827-0.339
		c0.047-0.029,0.097-0.057,0.148-0.08c3.009-1.435,5.289-3.963,6.418-7.121c0.518-1.467,0.769-2.839,0.769-4.197
		c0-1.355-0.252-2.727-0.769-4.196c-1.126-3.153-3.407-5.688-6.42-7.13c-0.046-0.022-0.091-0.047-0.134-0.073
		c-0.312-0.139-0.556-0.239-0.812-0.333c-0.639-0.244-1.204-0.419-1.741-0.54c-0.104-0.026-0.194-0.039-0.285-0.054l-0.196-0.035
		c-1.626-0.308-2.789-0.311-4.437,0l-0.203,0.035c-0.091,0.015-0.18,0.028-0.267,0.05c-0.557,0.126-1.121,0.301-1.744,0.539
		c-0.307,0.114-0.585,0.231-0.863,0.363c-0.009,0.003-0.019,0.009-0.03,0.013c-0.022,0.012-0.045,0.023-0.067,0.035
		c-3.016,1.444-5.293,3.977-6.412,7.131c-0.524,1.464-0.778,2.835-0.778,4.194c0,1.362,0.254,2.733,0.777,4.191
		c1.121,3.161,3.397,5.689,6.411,7.127C26.659,43.346,26.708,43.372,26.757,43.403z"/>
</g>
<g id="Layer_1">
</g>
</svg>
