<?xml version="1.0" encoding="iso-8859-1"?>
<!-- Generator: Adobe Illustrator 22.1.0, SVG Export Plug-In . SVG Version: 6.00 Build 0)  -->
<svg version="1.1" xmlns="http://www.w3.org/2000/svg" xmlns:xlink="http://www.w3.org/1999/xlink" x="0px" y="0px"
	 viewBox="0 0 64 64" style="enable-background:new 0 0 64 64;" xml:space="preserve">
<g id="_x32_">
	<path style="fill:#343B4A;" d="M32,64C14.355,64,0,49.645,0,32S14.355,0,32,0s32,14.355,32,32S49.645,64,32,64z M32,2.685
		C15.836,2.685,2.685,15.836,2.685,32c0,16.165,13.15,29.315,29.315,29.315c16.164,0,29.315-13.15,29.315-29.315
		C61.315,15.836,48.164,2.685,32,2.685z M27.902,43.468l21.383-21.383l-1.898-1.898L26.119,41.454l-9.506-9.506l-1.898,1.898
		l9.622,9.622c0.491,0.491,1.137,0.736,1.782,0.736S27.411,43.959,27.902,43.468z"/>
</g>
<g id="Layer_1">
</g>
</svg>
