<?xml version="1.0" encoding="iso-8859-1"?>
<!-- Generator: Adobe Illustrator 22.1.0, SVG Export Plug-In . SVG Version: 6.00 Build 0)  -->
<svg version="1.1" xmlns="http://www.w3.org/2000/svg" xmlns:xlink="http://www.w3.org/1999/xlink" x="0px" y="0px"
	 viewBox="0 0 64 64" style="enable-background:new 0 0 64 64;" xml:space="preserve">
<g id="_x32_0">
	<path style="fill-rule:evenodd;clip-rule:evenodd;fill:#343B4A;" d="M4.131,15.485C1.843,15.485,0,13.634,0,11.355
		s1.843-4.131,4.131-4.131c2.278,0,4.123,1.852,4.123,4.131S6.409,15.485,4.131,15.485L4.131,15.485z M64,9.525H12.386v3.657H64
		V9.525z M4.131,36.131C1.843,36.131,0,34.28,0,32.001s1.843-4.131,4.131-4.131c2.278,0,4.123,1.852,4.123,4.131
		S6.409,36.131,4.131,36.131L4.131,36.131z M64,30.171H12.386v3.657H64V30.171z M4.131,56.777C1.843,56.777,0,54.926,0,52.646
		c0-2.279,1.843-4.131,4.131-4.131c2.278,0,4.123,1.852,4.123,4.131C8.254,54.926,6.409,56.777,4.131,56.777L4.131,56.777z
		 M64,50.818H12.386v3.657H64V50.818z"/>
</g>
<g id="Layer_1">
</g>
</svg>
