<?xml version="1.0" encoding="iso-8859-1"?>
<!-- Generator: Adobe Illustrator 22.1.0, SVG Export Plug-In . SVG Version: 6.00 Build 0)  -->
<svg version="1.1" xmlns="http://www.w3.org/2000/svg" xmlns:xlink="http://www.w3.org/1999/xlink" x="0px" y="0px"
	 viewBox="0 0 64 64" style="enable-background:new 0 0 64 64;" xml:space="preserve">
<g id="_x32_1">
	<path style="fill:#343B4A;" d="M58.351,0H5.649C2.534,0,0,2.535,0,5.649v52.703C0,61.465,2.534,64,5.649,64h52.703
		C61.466,64,64,61.465,64,58.351V5.649C64,2.535,61.466,0,58.351,0z M60.235,5.649v24.468H33.882V3.765h24.469
		C59.39,3.765,60.235,4.61,60.235,5.649z M3.765,58.351V5.649c0-1.039,0.846-1.884,1.884-1.884h24.469v56.471H5.649
		C4.61,60.235,3.765,59.39,3.765,58.351z M58.351,60.235H33.882V33.881h26.353v24.47C60.235,59.39,59.39,60.235,58.351,60.235z"/>
</g>
<g id="Layer_1">
</g>
</svg>
