<?xml version="1.0" encoding="iso-8859-1"?>
<!-- Generator: Adobe Illustrator 22.1.0, SVG Export Plug-In . SVG Version: 6.00 Build 0)  -->
<svg version="1.1" xmlns="http://www.w3.org/2000/svg" xmlns:xlink="http://www.w3.org/1999/xlink" x="0px" y="0px"
	 viewBox="0 0 64 64" style="enable-background:new 0 0 64 64;" xml:space="preserve">
<g id="_x32_2">
	<path style="fill:#343B4A;" d="M52.907,62.655h-14.35V39.773H25.406v22.882H11.093c-1.93,0-3.499-1.567-3.499-3.494V34.852H4.15
		c-1.392,0-2.642-0.662-3.43-1.815c-0.784-1.164-0.935-2.569-0.42-3.862c0.511-1.293,1.261-2.394,2.229-3.27l25.472-22.92
		c2.431-2.186,5.568-2.186,7.993,0l25.462,22.917c0.978,0.884,1.732,1.986,2.243,3.276c0.514,1.293,0.36,2.698-0.42,3.854
		c-0.789,1.159-2.042,1.821-3.441,1.821h-3.436V59.16C56.405,61.087,54.836,62.655,52.907,62.655z M41.424,59.789h11.484
		c0.348,0,0.631-0.281,0.631-0.628L53.53,31.986h6.31c0.455,0,0.814-0.189,1.068-0.563c0.25-0.371,0.295-0.772,0.129-1.19
		c-0.347-0.879-0.852-1.619-1.499-2.205L34.078,5.115c-1.339-1.203-2.817-1.206-4.159,0L4.45,28.032
		c-0.635,0.575-1.136,1.317-1.486,2.2c-0.167,0.421-0.123,0.823,0.129,1.198c0.25,0.367,0.609,0.557,1.058,0.557h6.481l-0.171,1.586
		V59.16c0,0.347,0.284,0.628,0.633,0.628H22.54V36.907h18.884V59.789z"/>
</g>
<g id="Layer_1">
</g>
</svg>
