<?xml version="1.0" encoding="iso-8859-1"?>
<!-- Generator: Adobe Illustrator 22.1.0, SVG Export Plug-In . SVG Version: 6.00 Build 0)  -->
<svg version="1.1" xmlns="http://www.w3.org/2000/svg" xmlns:xlink="http://www.w3.org/1999/xlink" x="0px" y="0px"
	 viewBox="0 0 64 64" style="enable-background:new 0 0 64 64;" xml:space="preserve">
<g id="_x32_3">
	<path style="fill:#343B4A;" d="M60.402,8.922l0.46-0.46c0.712-0.711,1.103-1.657,1.103-2.663s-0.391-1.952-1.101-2.661
		c-1.421-1.424-3.905-1.426-5.326-0.002l-0.462,0.462C47-1.958,36.008-1.022,28.978,6.007L18.266,16.72
		c-5.401,3.442-10.202,2.604-12.601,1.794c-1.563-0.531-3.253-0.136-4.413,1.024c-1.669,1.672-1.669,4.391,0.002,6.061L11.53,35.876
		c-1.987,2.171-3.088,4.959-3.088,7.922c0,3.141,1.224,6.094,3.445,8.315c2.219,2.221,5.174,3.445,8.315,3.445
		c2.963,0,5.751-1.101,7.922-3.088l10.277,10.276C39.21,63.553,40.285,64,41.431,64s2.221-0.447,3.03-1.255
		c1.162-1.162,1.554-2.853,1.024-4.413c-0.81-2.399-1.645-7.206,1.795-12.598l10.711-10.714
		C65.021,27.992,65.959,17.002,60.402,8.922z M20.202,52.467c-2.316,0-4.493-0.902-6.13-2.539s-2.539-3.814-2.539-6.13
		c0-2.136,0.798-4.134,2.201-5.719l12.188,12.187C24.336,51.669,22.338,52.467,20.202,52.467z M55.806,32.835l-10.829,10.83
		l-0.204,0.25c-4.249,6.541-3.212,12.461-2.216,15.408v0.002c0.149,0.439,0.041,0.913-0.282,1.236c-0.453,0.45-1.237,0.45-1.69,0
		L3.438,23.414c-0.466-0.466-0.465-1.225,0-1.691c0.228-0.226,0.53-0.349,0.842-0.349c0.133,0,0.266,0.023,0.397,0.066
		c2.942,0.996,8.861,2.035,15.408-2.215L31.163,8.192c6.248-6.245,16.185-6.827,23.109-1.35l1.079,0.854l2.372-2.375
		c0.172-0.172,0.374-0.198,0.478-0.198s0.305,0.026,0.477,0.198c0.172,0.172,0.198,0.374,0.198,0.478s-0.026,0.306-0.198,0.478
		l-2.373,2.372l0.854,1.079C62.635,16.655,62.054,26.588,55.806,32.835z"/>
</g>
<g id="Layer_1">
</g>
</svg>
