<?xml version="1.0" encoding="iso-8859-1"?>
<!-- Generator: Adobe Illustrator 22.1.0, SVG Export Plug-In . SVG Version: 6.00 Build 0)  -->
<svg version="1.1" xmlns="http://www.w3.org/2000/svg" xmlns:xlink="http://www.w3.org/1999/xlink" x="0px" y="0px"
	 viewBox="0 0 64 64" style="enable-background:new 0 0 64 64;" xml:space="preserve">
<g id="_x32_4">
	<path style="fill:#343B4A;" d="M12.87,60.831l-0.504-0.376C-1.575,49.63-4.111,29.479,6.714,15.536l0,0
		C17.541,1.592,37.691-0.943,51.634,9.885c13.941,10.826,16.477,30.977,5.652,44.92c-2.207,2.841-5.053,4.346-8.463,4.474
		c-0.154,0.006-0.31,0.008-0.466,0.008c-9.059,0.001-19.416-9.696-22.914-13.257C14.762,60.566,14.162,60.652,13.47,60.749
		L12.87,60.831z M8.984,17.298c-9.599,12.363-7.658,30.088,4.179,40.107c1.991-2.353,7.295-9.428,10.98-14.457l1.041-1.421
		l1.183,1.306c0.125,0.137,12.408,13.582,21.975,13.582c0.126,0,0.251-0.001,0.376-0.007c2.556-0.095,4.615-1.197,6.299-3.364
		c9.855-12.691,7.546-31.034-5.144-40.888C37.181,2.3,18.839,4.607,8.984,17.298L8.984,17.298z M49.058,47.62
		c-1.274,0-2.556-0.407-3.638-1.246c-1.253-0.974-2.052-2.376-2.25-3.95c-0.198-1.575,0.229-3.132,1.202-4.385
		c0.972-1.254,2.376-2.054,3.95-2.252c1.57-0.194,3.131,0.227,4.385,1.202c1.254,0.972,2.054,2.376,2.252,3.95
		c0.198,1.575-0.229,3.132-1.202,4.385C52.588,46.831,50.831,47.62,49.058,47.62z M49.071,38.614c-0.129,0-0.258,0.007-0.389,0.024
		c-0.814,0.102-1.537,0.515-2.04,1.163c-0.504,0.647-0.724,1.451-0.621,2.264s0.515,1.537,1.162,2.04l0,0
		c0.648,0.502,1.449,0.725,2.266,0.621c0.812-0.102,1.537-0.515,2.04-1.163c0.504-0.647,0.724-1.451,0.621-2.264
		s-0.515-1.537-1.163-2.04C50.404,38.837,49.748,38.614,49.071,38.614z M48.47,30.573c-1.274,0-2.556-0.407-3.638-1.246
		c-2.587-2.009-3.057-5.749-1.049-8.337l0,0c2.01-2.587,5.75-3.055,8.337-1.049c2.587,2.009,3.057,5.749,1.049,8.337
		C52,29.783,50.244,30.573,48.47,30.573z M46.053,22.752c-1.037,1.337-0.794,3.269,0.541,4.305c1.337,1.037,3.269,0.794,4.305-0.541
		c1.037-1.337,0.794-3.269-0.541-4.305C49.023,21.174,47.09,21.418,46.053,22.752L46.053,22.752z M19.732,24.849
		c-1.274,0-2.556-0.407-3.638-1.246c-2.587-2.01-3.057-5.75-1.048-8.337c0.972-1.254,2.376-2.054,3.95-2.252
		c1.57-0.195,3.131,0.227,4.385,1.202c2.588,2.01,3.058,5.75,1.049,8.337C23.262,24.059,21.506,24.849,19.732,24.849z
		 M19.745,15.842c-0.129,0-0.258,0.007-0.389,0.024c-0.814,0.102-1.537,0.515-2.04,1.163c-1.038,1.337-0.795,3.267,0.54,4.305
		c1.335,1.037,3.269,0.794,4.305-0.541c1.038-1.337,0.795-3.267-0.541-4.305C21.078,16.065,20.423,15.842,19.745,15.842z
		 M36.395,21.196c-1.274,0-2.556-0.407-3.638-1.246l0,0c-2.587-2.009-3.057-5.749-1.049-8.337c2.01-2.588,5.75-3.057,8.337-1.049
		c2.587,2.009,3.057,5.749,1.049,8.337C39.925,20.406,38.168,21.196,36.395,21.196z M34.519,17.681
		c1.335,1.037,3.269,0.794,4.305-0.541c1.037-1.337,0.794-3.269-0.541-4.305c-1.335-1.037-3.27-0.795-4.305,0.541
		C32.941,14.712,33.184,16.643,34.519,17.681L34.519,17.681z"/>
</g>
<g id="Layer_1">
</g>
</svg>
