<?xml version="1.0" encoding="iso-8859-1"?>
<!-- Generator: Adobe Illustrator 22.1.0, SVG Export Plug-In . SVG Version: 6.00 Build 0)  -->
<svg version="1.1" xmlns="http://www.w3.org/2000/svg" xmlns:xlink="http://www.w3.org/1999/xlink" x="0px" y="0px"
	 viewBox="0 0 64 64" style="enable-background:new 0 0 64 64;" xml:space="preserve">
<g id="_x33_">
	<path style="fill:#343B4A;" d="M33.032,32.649c-8.897,0-16.135-7.238-16.135-16.135S24.135,0.378,33.032,0.378
		c8.897,0,16.134,7.238,16.134,16.135S41.929,32.649,33.032,32.649z M33.032,3.131c-7.379,0-13.382,6.003-13.382,13.382
		s6.003,13.382,13.382,13.382s13.382-6.003,13.382-13.382S40.411,3.131,33.032,3.131z M64,63.622H0v-8.258
		C0,43.98,9.261,34.718,20.645,34.718h22.71C54.739,34.718,64,43.98,64,55.364V63.622z M2.753,60.869h58.495v-5.505
		c0-9.866-8.026-17.892-17.892-17.892h-22.71c-9.866,0-17.892,8.026-17.892,17.892V60.869z"/>
</g>
<g id="Layer_1">
</g>
</svg>
