<?xml version="1.0" encoding="iso-8859-1"?>
<!-- Generator: Adobe Illustrator 22.1.0, SVG Export Plug-In . SVG Version: 6.00 Build 0)  -->
<svg version="1.1" xmlns="http://www.w3.org/2000/svg" xmlns:xlink="http://www.w3.org/1999/xlink" x="0px" y="0px"
	 viewBox="0 0 64 64" style="enable-background:new 0 0 64 64;" xml:space="preserve">
<g id="_x35_">
	<path style="fill:#343B4A;" d="M59.915,6.628h-8.851V1.635H48.34v4.993H33.362V1.635h-2.723v4.993H15.66V1.635h-2.723v4.993H4.085
		C1.832,6.628,0,8.46,0,10.713V58.28c0,2.253,1.832,4.085,4.085,4.085h55.83c2.253,0,4.085-1.832,4.085-4.085V10.713
		C64,8.46,62.168,6.628,59.915,6.628z M4.085,9.351h8.851v4.993h2.723V9.351h14.979v4.993h2.723V9.351H48.34v4.993h2.723V9.351
		h8.851c0.751,0,1.362,0.611,1.362,1.362V21.06H2.723V10.713C2.723,9.962,3.334,9.351,4.085,9.351z M59.915,59.641H4.085
		c-0.751,0-1.362-0.611-1.362-1.362V23.783h58.553V58.28C61.277,59.03,60.666,59.641,59.915,59.641z"/>
</g>
<g id="Layer_1">
</g>
</svg>
