<?xml version="1.0" encoding="iso-8859-1"?>
<!-- Generator: Adobe Illustrator 22.1.0, SVG Export Plug-In . SVG Version: 6.00 Build 0)  -->
<svg version="1.1" xmlns="http://www.w3.org/2000/svg" xmlns:xlink="http://www.w3.org/1999/xlink" x="0px" y="0px"
	 viewBox="0 0 64 64" style="enable-background:new 0 0 64 64;" xml:space="preserve">
<g id="_x36_">
	<path style="fill:#343B4A;" d="M57.745,7.924H45.186V5.265C45.186,2.362,42.825,0,39.921,0H24.079
		c-2.902,0-5.264,2.362-5.264,5.264v2.659H6.255c-1.81,0-3.282,1.473-3.282,3.283v5.938c0,1.809,1.471,3.282,3.281,3.283h0.682
		v38.315c0,2.899,2.358,5.258,5.258,5.258h39.611c2.902,0,5.264-2.362,5.264-5.264V20.428h0.68c1.808-0.001,3.28-1.474,3.28-3.283
		v-5.938C61.028,9.396,59.555,7.924,57.745,7.924z M24.079,2.605h15.842c1.468,0,2.661,1.194,2.661,2.661v2.659H21.419V5.264
		C21.419,3.798,22.612,2.605,24.079,2.605z M51.803,61.395H12.193c-1.463,0-2.653-1.19-2.653-2.653V20.428h44.923v38.308
		C54.463,60.202,53.27,61.395,51.803,61.395z M58.423,17.145c0,0.374-0.304,0.678-0.677,0.678h-1.981h-1.302H9.54H8.238H6.255
		c-0.374,0-0.678-0.305-0.678-0.678v-5.938c0-0.374,0.304-0.678,0.678-0.678h13.862h1.302h21.162h1.302h13.861
		c0.374,0,0.678,0.305,0.678,0.678V17.145z M30.698,25.303h2.605v30.139h-2.605V25.303z M19.536,25.303h2.605v30.139h-2.605V25.303z
		 M41.861,25.303h2.605v30.139h-2.605V25.303z"/>
</g>
<g id="Layer_1">
</g>
</svg>
