<?xml version="1.0" encoding="iso-8859-1"?>
<!-- Generator: Adobe Illustrator 22.1.0, SVG Export Plug-In . SVG Version: 6.00 Build 0)  -->
<svg version="1.1" xmlns="http://www.w3.org/2000/svg" xmlns:xlink="http://www.w3.org/1999/xlink" x="0px" y="0px"
	 viewBox="0 0 64 64" style="enable-background:new 0 0 64 64;" xml:space="preserve">
<g id="_x37_">
	<path style="fill:#343B4A;" d="M60.002,57.008H3.998C1.794,57.008,0,55.215,0,53.011V10.989c0-2.204,1.794-3.998,3.998-3.998
		h11.831c1.634,0,3.088,0.978,3.703,2.491l3.099,6.228c0.023,0.058,0.079,0.095,0.141,0.095h37.231c2.204,0,3.998,1.794,3.998,3.998
		v33.206C64,55.215,62.207,57.008,60.002,57.008z M3.998,9.453c-0.847,0-1.537,0.689-1.537,1.536v42.021
		c0,0.847,0.689,1.536,1.537,1.536h56.004c0.847,0,1.536-0.689,1.536-1.536V19.804c0-0.847-0.689-1.537-1.536-1.537H22.772
		c-1.05,0-1.987-0.618-2.401-1.579l-3.081-6.194c-0.274-0.665-0.832-1.041-1.46-1.041H3.998z"/>
</g>
<g id="Layer_1">
</g>
</svg>
