<?xml version="1.0" encoding="iso-8859-1"?>
<!-- Generator: Adobe Illustrator 22.1.0, SVG Export Plug-In . SVG Version: 6.00 Build 0)  -->
<svg version="1.1" xmlns="http://www.w3.org/2000/svg" xmlns:xlink="http://www.w3.org/1999/xlink" x="0px" y="0px"
	 viewBox="0 0 64 64" style="enable-background:new 0 0 64 64;" xml:space="preserve">
<g id="_x38_">
	<path style="fill:#343B4A;" d="M61.489,64L46.728,49.239c-11.04,9.739-27.949,9.335-38.499-1.216l0,0
		c-10.971-10.971-10.971-28.823,0-39.794c10.971-10.971,28.823-10.971,39.794,0c10.549,10.549,10.954,27.46,1.216,38.499L64,61.489
		L61.489,64z M10.739,45.512c9.588,9.586,25.186,9.588,34.772,0c9.586-9.587,9.586-25.185,0-34.772
		c-9.588-9.586-25.186-9.586-34.772,0C1.154,20.326,1.154,35.925,10.739,45.512L10.739,45.512z"/>
</g>
<g id="Layer_1">
</g>
</svg>
