<?xml version="1.0" encoding="iso-8859-1"?>
<!-- Generator: Adobe Illustrator 22.1.0, SVG Export Plug-In . SVG Version: 6.00 Build 0)  -->
<svg version="1.1" xmlns="http://www.w3.org/2000/svg" xmlns:xlink="http://www.w3.org/1999/xlink" x="0px" y="0px"
	 viewBox="0 0 64 64" style="enable-background:new 0 0 64 64;" xml:space="preserve">
<g id="_x39_">
	<path style="fill:#343B4A;" d="M32,53.545c-17.442,0-31.193-19.947-31.77-20.797c-0.307-0.452-0.307-1.046,0-1.498
		C0.807,30.401,14.558,10.455,32,10.455c17.442,0,31.193,19.947,31.769,20.796c0.307,0.452,0.307,1.046,0,1.498
		C63.193,33.598,49.442,53.545,32,53.545z M2.974,31.999C5.635,35.594,17.788,50.88,32,50.88c14.211,0,26.364-15.284,29.025-18.88
		C58.364,28.404,46.211,13.12,32,13.12C17.77,13.12,5.632,28.403,2.974,31.999z M32,42.742c-5.924,0-10.742-4.819-10.742-10.742
		c0-5.923,4.819-10.742,10.742-10.742c5.923,0,10.742,4.819,10.742,10.742C42.742,37.923,37.923,42.742,32,42.742z M32,23.923
		c-4.454,0-8.077,3.623-8.077,8.076c0,4.454,3.623,8.077,8.077,8.077c4.453,0,8.076-3.623,8.076-8.077
		C40.077,27.547,36.453,23.923,32,23.923z"/>
</g>
<g id="Layer_1">
</g>
</svg>
